<svg xmlns="http://www.w3.org/2000/svg" width="410" height="404" viewBox="0 0 410 404" fill="none">
  <path d="M399.641 59.5246L215.643 388.545C211.844 395.338 202.084 395.378 198.228 388.618L10.5817 59.5563C6.38087 52.1896 12.6802 43.2665 21.0281 44.7586L205.223 77.6824C206.398 77.8924 207.601 77.8904 208.776 77.6763L389.119 44.8058C397.439 43.2894 403.768 52.1434 399.641 59.5246Z" fill="url(#paint0_linear)"/>
  <path d="M292.965 1.5744L156.901 28.2552C154.563 28.7057 152.738 30.4428 152.246 32.7873L121.322 182.789C120.602 186.207 123.602 189.163 126.97 188.342L177.42 176.205C180.913 175.352 183.875 178.596 182.876 182.037L164.696 246.724C163.67 250.266 166.751 253.625 170.349 252.87L203.66 245.933C207.264 245.177 210.347 248.547 209.306 252.091L184.417 339.215C183.186 343.539 188.756 346.275 191.304 342.618L193.5 339.368L322.229 102.072C324.196 98.3645 321.108 94.137 317.036 94.9068L265.627 104.841C262.006 105.515 258.967 102.251 259.922 98.6769L298.516 43.2854C300.472 40.0999 297.844 36.1507 294.244 36.8661L231.955 49.3472C228.34 50.0645 225.294 46.7882 226.266 43.2065L235.515 8.87375C236.347 5.81458 233.723 2.88919 230.636 3.49221Z" fill="url(#paint1_linear)"/>
  <defs>
    <linearGradient id="paint0_linear" x1="6.00017" y1="32.9999" x2="235" y2="344" gradientUnits="userSpaceOnUse">
      <stop stop-color="#41D1FF"/>
      <stop offset="1" stop-color="#BD34FE"/>
    </linearGradient>
    <linearGradient id="paint1_linear" x1="194.651" y1="8.81818" x2="236.076" y2="292.989" gradientUnits="userSpaceOnUse">
      <stop stop-color="#FFEA83"/>
      <stop offset="0.0833333" stop-color="#FFDD35"/>
      <stop offset="1" stop-color="#FFA800"/>
    </linearGradient>
  </defs>
</svg>
