<svg xmlns="http://www.w3.org/2000/svg" width="1280" height="720" viewBox="0 0 1280 720" role="img" aria-labelledby="title desc">
  <title id="title">Vista de muestra Portfolio Web</title>
  <desc id="desc">Representacion visual del portfolio profesional.</desc>
  <rect width="1280" height="720" fill="#0f1116"/>
  <circle cx="180" cy="124" r="210" fill="#6c63ff" opacity="0.16"/>
  <circle cx="1080" cy="58" r="260" fill="#24d6cb" opacity="0.1"/>
  <rect x="72" y="42" width="1136" height="78" rx="18" fill="#161922" stroke="rgba(255,255,255,0.08)"/>
  <rect x="98" y="58" width="46" height="46" rx="13" fill="#0b0d12" stroke="#6c63ff"/>
  <text x="108" y="89" fill="#ffffff" font-family="Arial, sans-serif" font-size="19" font-weight="800">CO</text>
  <text x="178" y="89" fill="#9aa1b5" font-family="Arial, sans-serif" font-size="18" font-weight="700">Sobre mi</text>
  <text x="292" y="89" fill="#9aa1b5" font-family="Arial, sans-serif" font-size="18" font-weight="700">Aporte</text>
  <text x="386" y="89" fill="#9aa1b5" font-family="Arial, sans-serif" font-size="18" font-weight="700">Tecnologias</text>
  <text x="526" y="89" fill="#9aa1b5" font-family="Arial, sans-serif" font-size="18" font-weight="700">Proyectos</text>
  <rect x="72" y="158" width="1136" height="246" rx="24" fill="#141824" stroke="rgba(255,255,255,0.08)"/>
  <rect x="112" y="204" width="192" height="34" rx="17" fill="#161922"/>
  <text x="132" y="227" fill="#9aa1b5" font-family="Arial, sans-serif" font-size="15" font-weight="700">Buenos Aires</text>
  <text x="112" y="292" fill="#ffffff" font-family="Arial, sans-serif" font-size="58" font-weight="800">Carlos Octavio Otero</text>
  <text x="116" y="338" fill="#c6ccdb" font-family="Arial, sans-serif" font-size="24">Full Stack Developer | React | Node.js | Big Data</text>
  <circle cx="1042" cy="282" r="84" fill="#6c63ff" opacity="0.22"/>
  <circle cx="1042" cy="282" r="68" fill="#0b0d12" stroke="#6c63ff" stroke-width="4"/>
  <text x="1009" y="298" fill="#ffffff" font-family="Arial, sans-serif" font-size="38" font-weight="800">CO</text>
  <rect x="72" y="438" width="356" height="188" rx="18" fill="#141824" stroke="rgba(255,255,255,0.08)"/>
  <rect x="462" y="438" width="356" height="188" rx="18" fill="#141824" stroke="rgba(255,255,255,0.08)"/>
  <rect x="852" y="438" width="356" height="188" rx="18" fill="#141824" stroke="rgba(255,255,255,0.08)"/>
  <text x="106" y="500" fill="#ffffff" font-family="Arial, sans-serif" font-size="26" font-weight="800">Interfaces claras</text>
  <text x="496" y="500" fill="#ffffff" font-family="Arial, sans-serif" font-size="26" font-weight="800">Aplicaciones completas</text>
  <text x="886" y="500" fill="#ffffff" font-family="Arial, sans-serif" font-size="26" font-weight="800">Decisiones con datos</text>
  <rect x="106" y="532" width="232" height="16" rx="8" fill="#6c63ff" opacity="0.45"/>
  <rect x="496" y="532" width="232" height="16" rx="8" fill="#24d6cb" opacity="0.32"/>
  <rect x="886" y="532" width="232" height="16" rx="8" fill="#6c63ff" opacity="0.45"/>
</svg>
